<svg width="297" height="212" viewBox="0 0 297 212" fill="none" xmlns="http://www.w3.org/2000/svg">
<path fill-rule="evenodd" clip-rule="evenodd" d="M141.268 211.416C196.363 211.416 204.173 186.905 212.527 182.401C220.881 177.897 215.688 168.858 221.166 162.04C229.918 151.15 235.222 156.762 238.118 142.635C241.015 128.507 235.749 124.51 235.749 111.897C235.749 86.6265 247.855 74.6641 232.396 61.4421C216.936 48.2201 191.121 49.7802 165.588 49.7802C118.197 49.7802 89.8059 -15.1855 26.5977 4.30487C4.81478 11.0217 7.22225 20.1752 12.0086 52.5232C14.087 66.5702 -1.60606 84.4298 1.11676 100.393C6.08966 129.548 19.2234 125.593 44.0037 145.277C48.161 148.58 54.2244 148.545 58.7565 151.932C66.3547 157.611 66.8432 166.44 81.0481 172.395C103.953 181.998 102.01 211.416 141.268 211.416Z" fill="#EE58B6"/>
<path d="M35.9407 149.258C43.6338 149.258 49.8702 143.393 49.8702 136.159C49.8702 128.925 43.6338 123.06 35.9407 123.06C28.2477 123.06 22.0112 128.925 22.0112 136.159C22.0112 143.393 28.2477 149.258 35.9407 149.258Z" fill="white"/>
<path fill-rule="evenodd" clip-rule="evenodd" d="M30.4781 89.4563C28.1035 83.5258 30.1778 79.9727 31.5074 75.3342C32.618 71.4597 41.3034 65.1659 45.3007 71.7284C46.4767 73.6591 46.0049 75.484 48.5751 77.1808C54.7968 81.2883 51.4027 72.7667 51.634 70.6124C51.7469 69.5616 50.859 67.1383 51.1896 66.1241C51.5364 65.06 53.3849 63.5483 53.3849 61.3425C53.3849 59.1367 49.6248 58.2872 48.5751 57.7452C39.2473 52.9292 33.315 44.8851 36.2713 40.8026C40.3902 35.1147 56.5326 44.0641 61.3829 44.8851C61.4457 44.8957 62.312 40.3737 63.0195 39.3382C64.4351 37.2665 65.9995 35.2555 67.8658 33.5785C68.7019 32.8273 69.8351 32.3636 70.9489 32.2133C74.2823 31.7636 77.6925 31.3947 81.0314 31.8021C82.2111 31.946 89.2373 23.8143 91.9769 21.1913C112.996 1.06646 155.132 25.5906 132.164 58.9152C127.943 65.0403 122.545 66.9881 121.847 69.1528C120.299 73.9613 130.047 73.3289 134.177 73.8425C141.231 74.72 144.708 78.3439 140.329 84.5552C137.601 88.4247 121.596 88.2273 114.585 85.4292C111.983 84.3906 108.767 79.8497 106.308 83.5747C104.613 86.1412 98.0066 91.5865 90.9193 94.6668C87.7201 96.0571 84.0765 95.2192 81.3466 96.4608C77.5041 98.2084 66.1605 105.546 61.3829 105.545C56.5714 105.543 50.345 99.7526 49.6248 99.3728C48.5268 98.7938 40.0333 97.1346 35.8375 90.6597C34.5686 88.7017 31.3473 91.6271 30.4781 89.4563Z" fill="white"/>
<path d="M112.174 56.5315C112.989 56.5315 113.65 55.8803 113.65 55.077C113.65 54.2738 112.989 53.6226 112.174 53.6226C111.359 53.6226 110.698 54.2738 110.698 55.077C110.698 55.8803 111.359 56.5315 112.174 56.5315Z" fill="#FFB61D"/>
<path d="M101.37 53.4735C102.161 53.4735 102.803 52.8321 102.803 52.0408C102.803 51.2496 102.161 50.6082 101.37 50.6082C100.579 50.6082 99.9373 51.2496 99.9373 52.0408C99.9373 52.8321 100.579 53.4735 101.37 53.4735Z" fill="#FFB61D"/>
<path d="M205.75 70.256C216.488 70.256 225.193 61.5509 225.193 50.8127C225.193 40.0744 216.488 31.3694 205.75 31.3694C195.012 31.3694 186.307 40.0744 186.307 50.8127C186.307 61.5509 195.012 70.256 205.75 70.256Z" fill="white"/>
<path d="M144.954 209.405C176.157 209.405 201.452 187.786 201.452 161.116C201.452 134.447 176.157 112.827 144.954 112.827C113.751 112.827 88.4558 134.447 88.4558 161.116C88.4558 187.786 113.751 209.405 144.954 209.405Z" fill="white"/>
<path fill-rule="evenodd" clip-rule="evenodd" d="M97.0564 187.446L97.6904 187.905C96.2593 189.19 94.1063 187.593 92.8992 186.096C90.9583 183.69 88.9885 181.132 88.3978 178.097C88.0617 176.37 88.1962 174.591 88.332 172.837L88.8795 165.764C89.1222 162.63 89.3655 159.49 89.908 156.394C91.3763 148.015 95.0724 140.036 100.515 133.497L100.569 133.431C101.53 132.277 102.58 131.017 102.561 129.52C102.522 126.354 104.345 123.396 106.739 121.323C109.133 119.251 112.064 117.921 114.95 116.619C116.258 116.029 117.965 115.501 118.979 116.516C121.063 118.604 124.542 117.274 127.295 116.214C130.675 114.912 134.286 114.21 137.907 114.152C138.013 114.15 138.119 114.148 138.226 114.147C140.401 114.116 142.848 114.081 144.175 112.396C145.02 111.323 146.635 111.386 147.991 111.548L157.315 112.663C158.027 112.748 158.881 112.943 159.106 113.624C159.708 115.452 161.833 116.197 163.675 116.753C170.224 118.727 176.626 121.408 182.186 125.393C187.746 129.378 192.445 134.737 194.939 141.107C190.884 135.566 186.725 129.92 181.099 125.985C179.489 124.859 177.776 123.886 176.038 122.97C171.935 120.807 167.665 118.943 163.229 117.589C142.637 111.304 118.818 117.133 103.455 132.217C101.228 134.404 99.1394 136.813 97.8762 139.668L99.545 140.186C96.9001 141.368 94.9356 143.958 94.5103 146.824C95.5748 145.001 97.0919 143.444 98.8871 142.333C98.3732 144.05 97.0369 145.429 95.7268 146.781C94.0573 148.504 92.4305 150.183 92.6032 152.46C93.3958 150.379 95.3926 148.809 97.6012 148.529C94.0982 151.952 90.3391 155.969 90.4508 160.865C91.7285 158.038 93.8982 155.621 96.5723 154.048L92.7226 159.221C91.2667 161.177 89.7336 163.413 90.0664 165.829C91.3329 163.556 93.1437 161.589 95.3043 160.139C94.2639 162.505 92.7784 164.674 90.9488 166.5C92.6887 166.29 94.3639 165.569 95.713 164.45C95.1474 165.24 94.6378 166.131 94.6188 167.102C94.5998 168.073 95.2289 169.115 96.19 169.254C96.4809 168.604 97.3934 168.329 97.9952 168.711C96.1713 170.486 96.1525 173.774 97.9559 175.569C98.1163 174.725 98.828 174.014 99.6719 173.854C98.3267 176.206 98.0848 179.16 99.0295 181.7C99.3154 180.261 100.114 178.929 101.248 177.999C100.594 181.412 99.1481 184.671 97.0564 187.446ZM96.2597 186.359C97.3985 186.347 98.1068 185.073 98.2256 183.94C98.3678 182.585 98.0311 181.231 97.6971 179.91L95.716 172.074C95.3431 172.192 95.2998 172.598 95.2545 173.023C95.2158 173.386 95.1756 173.762 94.9276 173.986C94.4261 173.362 94.3691 172.418 94.792 171.739C95.2189 171.053 94.9397 170.092 94.334 169.558C93.7284 169.023 92.8857 168.842 92.0782 168.815C91.6419 168.801 91.1778 168.834 90.8207 169.085C90.4636 169.337 90.2757 169.871 90.5294 170.226C91.2844 171.284 91.8524 172.475 92.1993 173.728C92.2252 173.821 92.2504 173.916 92.2756 174.011C92.448 174.662 92.6253 175.33 93.1011 175.794C93.4689 176.152 93.5627 176.699 93.6373 177.207L94.2426 181.324C94.3528 182.074 94.4629 182.838 94.3368 183.585C94.2108 184.332 93.8071 185.072 93.1297 185.411L95.293 186.147C95.6069 186.254 95.9282 186.362 96.2597 186.359ZM119.839 118.873C119.413 118.963 119.055 118.589 118.75 118.269L118.715 118.232C118.402 117.905 117.864 117.62 117.535 117.93C113.695 121.542 109.326 124.59 104.611 126.946C103.755 127.374 103.64 128.527 103.639 129.484C103.639 129.803 103.945 130.252 104.144 130.002C105.117 128.784 106.381 127.838 107.631 126.906C111.147 124.285 114.706 121.638 118.737 119.91C119.226 119.7 119.799 119.404 119.839 118.873ZM158.428 114.811C158.211 114.3 157.592 114.116 157.046 114.013C155.56 113.733 154.048 113.606 152.537 113.479C150.461 113.305 148.389 113.132 146.392 112.562C145.752 112.379 145.205 113.028 144.854 113.593C145.907 113.483 146.966 113.438 148.024 113.458C149.865 113.491 151.697 113.721 153.524 113.95C154.453 114.066 155.388 114.184 156.278 114.472C156.382 114.506 156.487 114.542 156.592 114.578C157.2 114.786 157.828 115.002 158.428 114.811ZM138.771 122.659C139.192 122.755 139.593 123.069 139.656 123.497C139.718 123.923 139.427 124.338 139.056 124.555C138.684 124.772 138.244 124.832 137.817 124.889L136.532 125.059C136.403 125.076 136.271 125.094 136.159 125.161C135.836 125.352 135.858 125.87 136.122 126.137C136.386 126.404 136.791 126.47 137.167 126.469C138.915 126.466 140.569 125.208 141.103 123.544C141.23 123.148 141.297 122.709 141.14 122.325C141.06 122.13 140.927 121.961 140.779 121.811C140.092 121.114 139.068 120.807 138.091 120.876C137.115 120.945 136.186 121.361 135.392 121.932C135.011 122.206 134.648 122.527 134.432 122.944C134.216 123.36 134.169 123.888 134.411 124.29C134.504 124.443 134.646 124.579 134.823 124.608C134.999 124.637 135.203 124.523 135.225 124.345C135.286 123.852 135.646 123.435 136.076 123.184C136.505 122.933 137 122.822 137.488 122.725C137.911 122.64 138.35 122.563 138.771 122.659ZM104.324 147.075C104.805 144.234 107.099 141.925 109.774 140.854C111.248 140.265 112.935 140.006 114.418 140.574C114.784 140.715 115.138 140.908 115.401 141.198C115.649 141.47 115.805 141.814 115.922 142.163C116.676 144.397 115.911 146.98 114.293 148.695C112.675 150.409 110.319 151.309 107.968 151.477C107.214 151.531 106.405 151.501 105.783 151.072C105.161 150.644 104.852 149.693 105.331 149.109C105.558 149.12 105.68 149.322 105.805 149.529C105.867 149.632 105.929 149.735 106.006 149.818C106.267 150.099 106.699 150.119 107.082 150.103C108.749 150.033 110.442 149.619 111.799 148.648C113.156 147.677 114.131 146.091 114.103 144.422C114.094 143.885 113.977 143.335 113.672 142.891C113.172 142.164 112.227 141.836 111.346 141.894C110.465 141.952 109.64 142.343 108.89 142.808C107.903 143.421 106.991 144.19 106.373 145.173C105.754 146.156 105.452 147.371 105.713 148.503C105.482 148.92 104.795 148.837 104.511 148.454C104.227 148.07 104.245 147.545 104.324 147.075ZM119.68 170.489C118.46 171.274 117.448 172.502 117.26 173.941C117.108 175.104 117.498 176.263 117.882 177.372C118.182 178.238 118.492 179.122 119.064 179.837C120.096 181.13 121.804 181.665 123.437 181.928C123.882 182 124.557 181.799 124.398 181.377C122.674 181.345 120.978 180.546 119.856 179.237C118.733 177.927 118.204 176.128 118.436 174.42C118.485 174.06 118.567 173.702 118.718 173.372C119.024 172.705 119.593 172.192 120.21 171.793C121.537 170.936 123.152 170.534 124.727 170.67C126.244 170.801 127.76 171.466 128.687 172.675C129.613 173.885 129.834 175.669 129.017 176.954C128.884 177.163 128.787 177.532 129.03 177.576C130.347 176.867 131.077 175.303 131.003 173.81C130.93 172.317 130.141 170.919 129.058 169.889C128.458 169.319 127.749 168.838 126.945 168.644C125.885 168.389 124.776 168.652 123.722 168.93C122.319 169.299 120.899 169.704 119.68 170.489ZM179.589 172.344C175.178 170.697 170.385 170.083 165.701 170.565C163.737 170.767 161.767 171.168 160.001 172.052C156.67 173.719 154.288 177.152 153.891 180.856C153.495 184.56 155.097 188.419 158 190.753C159.101 191.638 160.351 192.301 161.602 192.965C162.457 193.418 163.312 193.871 164.121 194.396C164.352 194.617 163.832 194.838 163.528 194.74C160.698 193.826 157.951 192.437 155.932 190.254C153.477 187.598 152.28 183.827 152.753 180.241C153.227 176.655 155.363 173.324 158.423 171.396C160.844 169.872 163.738 169.229 166.597 169.126C169.456 169.023 172.307 169.432 175.134 169.87C176.899 170.143 178.97 170.668 179.589 172.344ZM133.175 177.871C132.974 177.412 132.169 177.292 132.022 177.771C131.086 180.816 128.115 183.118 124.932 183.264C124.213 183.297 123.493 183.231 122.777 183.161C121.233 183.012 119.641 182.835 118.289 182.075C116.345 180.982 115.176 178.738 115.162 176.508C115.148 174.278 116.206 172.111 117.812 170.564C117.589 169.94 116.632 170.241 116.157 170.703C113.523 173.264 113.071 177.683 114.919 180.858C116.767 184.032 120.641 185.812 124.292 185.408C127.943 185.004 131.24 182.56 132.937 179.302C133.168 178.858 133.375 178.33 133.175 177.871ZM110.31 193.29C109.715 195.571 109.659 197.991 110.146 200.297C110.365 201.331 110.389 201.901 110.394 202.008V202.019C110.394 202.024 110.394 202.026 110.395 202.026C110.395 202.026 110.395 202.02 110.396 202.008C110.4 201.901 110.426 201.329 110.65 200.293C111.149 197.983 111.03 195.542 110.31 193.29ZM113.47 194.67C112.625 196.441 112.73 198.633 113.74 200.316C113.967 200.694 114.139 201.001 114.266 201.227C114.437 201.532 114.526 201.691 114.557 201.681C114.59 201.669 114.554 201.456 114.479 201.009C114.449 200.829 114.413 200.612 114.372 200.356L113.47 194.67ZM115.849 196.932C115.49 198.063 115.754 199.37 116.523 200.274C117.309 201.196 117.565 201.492 117.326 200.304C117.082 199.092 116.574 197.933 115.849 196.932ZM184.702 184.069C183.623 188.4 180.177 191.681 176.836 194.641C176.988 194.97 177.482 194.852 177.798 194.674C181.183 192.769 183.921 189.665 185.171 185.987C186.42 182.31 186.11 178.085 184.137 174.74C183.972 174.459 183.761 174.16 183.441 174.097C183.121 174.035 182.752 174.406 182.94 174.672C184.836 177.357 185.496 180.879 184.702 184.069ZM136.043 144.963C136.035 144.278 136.045 143.536 136.458 142.99C137.028 142.238 138.109 142.159 139.052 142.146C139.473 142.14 139.899 142.135 140.309 142.232C141.181 142.439 141.876 143.083 142.495 143.732C142.632 143.875 142.778 144.052 142.744 144.248C142.702 144.491 142.398 144.602 142.157 144.552C141.996 144.519 141.852 144.44 141.708 144.36C141.635 144.319 141.563 144.279 141.488 144.245C140.62 143.847 139.601 144.283 138.822 144.834C138.7 144.921 138.567 145.032 138.564 145.182C138.561 145.333 138.69 145.449 138.812 145.539C139.865 146.31 141.213 146.667 142.509 146.518C142.819 146.482 143.183 146.369 143.264 146.067C143.295 145.949 143.283 145.811 143.271 145.677C143.251 145.453 143.233 145.242 143.421 145.164C143.519 145.124 143.63 145.153 143.732 145.183C144.434 145.387 145.254 145.715 145.39 146.433C145.43 146.64 145.402 146.857 145.336 147.057C145.142 147.644 144.604 148.103 143.993 148.2C143.722 148.243 143.446 148.219 143.172 148.196C142.458 148.135 141.743 148.073 141.036 147.959C139.736 147.75 138.466 147.363 137.27 146.812C136.856 146.621 136.424 146.386 136.214 145.98C136.055 145.672 136.047 145.31 136.043 144.963ZM162.731 128.068C162.313 126.939 161.304 126.048 160.132 125.774C159.77 125.689 159.36 125.668 159.053 125.878C158.745 126.088 158.639 126.6 158.933 126.83C159.217 127.053 159.045 127.576 158.698 127.675C158.351 127.774 157.977 127.539 157.803 127.222C157.63 126.905 157.611 126.529 157.609 126.168C157.607 125.686 157.651 125.148 158.007 124.823C158.142 124.7 158.311 124.62 158.479 124.545C159.173 124.235 159.939 123.972 160.681 124.138C161.387 124.297 161.95 124.818 162.443 125.349C162.847 125.784 163.228 126.239 163.587 126.713C163.902 127.13 164.206 127.575 164.324 128.084C164.443 128.594 164.341 129.185 163.947 129.529C163.562 129.867 162.969 129.895 162.501 129.687C162.088 129.503 161.735 129.098 161.766 128.647C161.797 128.196 162.351 127.821 162.731 128.068ZM166.458 159.803C167.494 159.773 168.459 158.975 168.683 157.964C168.819 157.348 168.651 156.617 168.115 156.286C167.723 156.044 167.23 156.061 166.771 156.091C166.135 156.132 165.475 156.187 164.922 156.505C164.369 156.822 163.959 157.48 164.132 158.094C164.413 159.091 165.422 159.833 166.458 159.803ZM166.591 158.308C166.391 158.362 166.105 158.31 166.087 158.104C166.08 158.018 166.126 157.937 166.179 157.869C166.473 157.487 167.034 157.339 167.478 157.525C167.324 157.904 166.986 158.202 166.591 158.308ZM167.126 142.98C166.957 142.591 167.284 142.137 167.681 141.988C168 141.868 168.345 141.881 168.688 141.893C168.773 141.896 168.858 141.899 168.943 141.901C169.367 141.906 169.836 141.835 170.111 141.512C170.208 141.398 170.274 141.231 170.2 141.101C170.123 140.965 169.94 140.941 169.784 140.933C168.703 140.877 167.426 140.91 166.802 141.796C166.668 141.986 166.34 141.922 166.215 141.726C166.09 141.529 166.118 141.272 166.19 141.051C166.445 140.257 167.178 139.68 167.979 139.449C168.779 139.217 169.639 139.29 170.452 139.474C170.726 139.536 171.011 139.618 171.211 139.815C171.37 139.972 171.459 140.186 171.517 140.401C171.794 141.431 171.385 142.61 170.53 143.247C169.675 143.884 168.429 143.939 167.521 143.379C167.359 143.28 167.202 143.155 167.126 142.98ZM163.419 161.171C163.921 161.772 164.516 162.32 165.238 162.626C166.696 163.245 168.56 162.673 169.421 161.343C169.734 160.858 169.874 160.119 169.411 159.775C168.669 161.335 166.517 162.023 165.007 161.184C164.718 161.024 164.455 160.818 164.216 160.589C163.13 159.55 162.564 157.852 163.201 156.491C163.408 156.047 163.727 155.664 164.076 155.32C164.837 154.569 165.925 153.954 166.94 154.288C166.982 154.302 167.024 154.318 167.066 154.333C167.208 154.385 167.351 154.438 167.5 154.429C167.694 154.418 167.896 154.245 167.847 154.057C167.832 154.002 167.797 153.953 167.762 153.908C167.134 153.109 165.903 152.862 165.016 153.358C163.96 153.948 162.887 154.642 162.326 155.713C161.412 157.457 162.158 159.659 163.419 161.171ZM180.236 134.277C180.19 134.344 180.201 134.436 180.212 134.525C180.226 134.63 180.238 134.73 180.152 134.772C179.836 134.928 179.457 134.912 179.121 134.809C178.201 134.527 177.584 133.683 177.064 132.874C176.76 132.401 176.457 131.898 176.408 131.338C176.359 130.777 176.645 130.146 177.185 129.988C177.787 129.811 178.377 130.259 178.845 130.676C179.374 131.146 179.914 131.631 180.241 132.259C180.568 132.886 180.64 133.697 180.236 134.277ZM178.237 132.178C178.367 132.304 178.438 132.473 178.509 132.642C178.579 132.809 178.649 132.976 178.775 133.102C178.935 133.261 179.177 133.333 179.398 133.285C178.984 132.646 178.505 132.048 177.971 131.506C177.828 131.549 177.816 131.761 177.902 131.883C177.954 131.957 178.027 132.011 178.1 132.066C178.147 132.101 178.195 132.137 178.237 132.178ZM99.5179 189.989C99.4668 190.829 99.5312 191.802 100.203 192.308C100.427 192.183 100.412 191.863 100.384 191.608C100.21 190.038 100.697 188.525 101.187 187.002C101.538 185.912 101.891 184.817 102.004 183.692C102.037 183.366 101.95 182.919 101.622 182.906C101.376 182.897 101.218 183.156 101.119 183.381C100.201 185.466 99.6561 187.715 99.5179 189.989ZM164.711 159.703C165.469 160.039 166.31 160.381 167.104 160.14C167.419 160.044 167.7 159.862 167.977 159.682C167.975 160.146 167.576 160.535 167.132 160.668C166.687 160.8 166.209 160.729 165.756 160.631C165.253 160.522 164.637 160.213 164.711 159.703ZM104.728 198.413C104.921 198.068 104.954 197.659 104.983 197.265L105.212 194.126C105.324 192.585 105.437 191.038 105.336 189.497C105.323 189.302 105.304 189.097 105.19 188.939C105.077 188.781 104.837 188.696 104.682 188.814C104.568 188.9 104.539 189.057 104.519 189.199C104.27 190.981 104.138 192.78 104.122 194.58C104.11 195.885 104.17 197.233 104.728 198.413ZM101.297 195.714C101.096 195.884 100.761 195.735 100.65 195.496C100.539 195.257 100.584 194.978 100.631 194.719C101.128 192.01 101.692 189.312 102.321 186.631C102.337 186.564 102.354 186.494 102.398 186.44C102.563 186.235 102.898 186.441 103.016 186.677C103.305 187.256 103.166 187.946 103.022 188.576L101.47 195.345C101.439 195.48 101.402 195.625 101.297 195.714ZM106.672 195.835C106.585 196.851 106.738 197.871 106.89 198.879C106.944 199.239 107.202 199.716 107.527 199.552L108.159 192.791C108.185 192.516 108.202 192.21 108.032 191.993C107.861 191.776 107.429 191.785 107.375 192.056L106.908 194.374C106.811 194.858 106.714 195.343 106.672 195.835ZM171.967 175.111C170.167 174.184 167.976 173.819 166.106 174.595C164.709 175.175 160.761 177.68 160.236 180.891C159.884 183.041 159.888 185.237 160.64 187.312L160.761 187.638C160.985 188.226 161.699 188.901 162.098 188.415C160.933 186.308 160.715 183.7 161.515 181.429C162.315 179.159 164.119 177.263 166.348 176.352C166.817 176.16 167.306 176.009 167.811 175.961C168.831 175.865 169.849 176.195 170.76 176.662C172.723 177.668 175.155 179.341 176.09 181.339C176.991 183.265 177.654 185.562 176.839 187.526C176.024 189.49 170.669 190.911 170.669 190.911L171.261 191.992C171.261 191.992 174.259 191.401 176.09 190.067C183.776 184.47 173.689 175.998 171.967 175.111Z" fill="#00160A"/>
<path fill-rule="evenodd" clip-rule="evenodd" d="M36.1022 147.472C33.384 147.763 30.5049 147.134 28.3825 145.411C26.8794 144.191 25.8233 142.493 25.0821 140.704C24.2775 138.762 23.8149 136.679 23.7219 134.579C23.6869 133.789 23.7057 132.983 23.938 132.227C24.3204 130.982 25.2413 129.982 26.1813 129.081C28.1812 127.163 30.5318 125.413 33.2733 125.01C35.1414 124.735 37.0416 125.109 38.8702 125.58C40.3063 125.95 41.7406 126.385 43.0324 127.114C45.8868 128.723 47.8648 131.792 48.1509 135.057C48.437 138.321 48.085 140.484 43.6798 144.54C41.3907 146.034 38.8204 147.18 36.1022 147.472ZM40.8956 137.225C40.4548 137.364 40.0153 137.61 39.5602 137.53C38.6304 137.366 38.464 136.091 38.6705 135.169C39.2615 132.532 41.0998 130.203 43.5274 129.016C42.9779 128.019 41.518 127.945 40.4854 128.425C39.4529 128.904 38.6458 129.767 37.6472 130.314C37.1503 130.585 36.5614 130.778 36.0209 130.609C35.1314 130.33 34.7918 129.165 35.083 128.28C35.3742 127.394 36.101 126.733 36.7988 126.116C34.2701 126.204 31.7679 126.963 29.6161 128.294C27.9315 129.336 26.3336 131.045 26.5571 133.013C27.9499 131.892 29.5853 131.073 31.3176 130.631C31.6851 130.537 32.1462 130.49 32.3762 130.791C32.5503 131.02 32.5003 131.348 32.3887 131.613C31.835 132.926 30.2066 133.367 29.1966 134.372C29.064 134.504 28.9368 134.657 28.9047 134.841C28.8418 135.202 29.1861 135.532 29.5479 135.592C29.9096 135.653 30.2728 135.521 30.6159 135.391C31.3286 135.123 32.0412 134.854 32.7539 134.585C33.2698 134.39 33.8823 134.204 34.341 134.51C34.8156 134.827 34.8604 135.546 34.5921 136.05C34.3239 136.553 33.8315 136.891 33.3577 137.208C32.2156 137.974 31.0735 138.739 29.9313 139.505C28.9751 140.146 27.9038 141.01 27.9947 142.157C28.0802 143.237 29.2686 143.972 30.3499 143.902C31.4312 143.833 32.3829 143.172 33.1809 142.439C33.979 141.706 34.6994 140.869 35.6262 140.307C36.2309 139.941 37.0938 139.738 37.5851 140.246C37.9647 140.639 37.9281 141.271 37.7856 141.798C37.375 143.318 36.265 144.634 34.8358 145.294C35.9986 145.563 37.2112 145.613 38.3923 145.443C39.0659 145.346 39.7632 145.159 40.2503 144.684C40.7374 144.208 40.9261 143.372 40.5035 142.838C39.8732 142.042 39.8983 140.878 40.301 139.946C40.7037 139.014 41.4229 138.262 42.1275 137.531C41.9258 137.115 41.3365 137.087 40.8956 137.225ZM46.2788 139.031C46.912 137.568 46.9351 135.912 46.7747 134.326C46.5974 132.571 45.9856 130.565 44.3326 129.95C41.9102 130.955 40.0408 133.198 39.4884 135.762C39.442 135.978 39.4057 136.209 39.4904 136.413C39.5752 136.616 39.8271 136.765 40.0223 136.662C40.692 136.312 41.5157 136.112 42.1966 136.441C42.8774 136.77 43.209 137.796 42.6577 138.314C42.0486 138.885 41.4229 139.48 41.0943 140.248C40.7657 141.016 40.8131 142.01 41.4318 142.572C41.8967 142.994 41.8979 143.822 41.4342 144.245C42.7526 143.86 43.6921 142.726 44.5471 141.651C45.2007 140.829 45.8619 139.995 46.2788 139.031ZM31.1007 131.463C29.7292 132.031 28.3978 132.697 27.12 133.453C26.8161 133.633 26.509 133.823 26.2867 134.098C25.9867 134.468 25.8727 134.952 25.78 135.42C25.4804 136.931 25.326 138.558 25.9605 139.961C26.1631 140.409 26.44 140.819 26.7154 141.226C26.7967 141.347 26.889 141.475 27.0284 141.516C27.1678 141.556 27.3518 141.444 27.3191 141.302C27.2182 140.867 27.5482 140.457 27.8739 140.15C29.7812 138.355 32.3507 137.324 34.0659 135.344C33.8058 135.036 33.3122 135.181 32.9412 135.34C32.0576 135.717 31.1465 136.03 30.2175 136.275C29.7383 136.401 29.2042 136.504 28.7669 136.271C28.1268 135.93 28.0226 134.996 28.3607 134.354C28.6988 133.712 29.3415 133.298 29.9614 132.921C30.5813 132.545 31.2316 132.151 31.6035 131.529C31.5358 131.351 31.2759 131.39 31.1007 131.463ZM35.7946 143.489C36.4007 143.002 37.0555 142.428 37.1216 141.653C37.1562 141.248 36.8964 140.753 36.4917 140.791C36.3673 140.803 36.2537 140.865 36.1464 140.929C34.3839 141.982 33.2239 144.041 31.2356 144.553C31.7974 144.804 32.3833 145.002 32.9826 145.143C33.161 145.185 33.3468 145.222 33.5263 145.184C33.7352 145.141 33.9099 145.004 34.0762 144.87C34.649 144.41 35.2218 143.95 35.7946 143.489ZM37.4337 126.657C37.0415 127.091 36.6493 127.525 36.2571 127.958C35.9464 128.302 35.6131 128.755 35.786 129.185C35.9134 129.502 36.2897 129.662 36.6299 129.635C36.9701 129.609 37.28 129.435 37.5654 129.248C38.5822 128.581 39.4977 127.672 40.6842 127.405C39.8615 127.105 39.0388 126.806 38.2161 126.506C38.0447 126.443 37.8537 126.381 37.6851 126.451C37.584 126.492 37.5071 126.576 37.4337 126.657Z" fill="#00160A"/>
<path fill-rule="evenodd" clip-rule="evenodd" d="M52.7438 74.8399C52.6412 76.8955 51.0553 79.1214 49.0116 78.8782C48.0892 77.8114 47.3672 76.4873 46.6537 75.1786C45.2834 72.6654 43.9443 70.2092 41.2764 69.743C38.6559 69.2851 36.2155 71.2124 34.5835 73.3131C32.2198 76.3555 30.6923 80.0411 30.2108 83.8636C29.9278 86.1109 30.8494 89.2274 33.1009 88.9801C35.6726 88.6976 37.5016 90.7205 39.3618 92.7781C41.0835 94.6824 42.8321 96.6164 45.2211 96.7795C48.0657 96.9738 50.3892 98.678 52.7413 100.403C54.3121 101.555 55.8957 102.717 57.6557 103.444C60.9667 104.812 64.7847 104.547 68.1644 103.359C71.5441 102.171 74.5518 100.125 77.3985 97.9502L77.5477 97.8361C79.1016 96.6477 80.7283 95.4036 82.6606 95.1419C92.5411 93.8034 101.731 88.008 107.197 79.6688C114.946 85.8632 125.78 87.9804 135.291 85.1587C136.905 84.68 138.529 84.038 139.725 82.8543C140.922 81.6706 141.601 79.8325 141.013 78.2554C140.369 76.5307 138.447 75.6072 136.62 75.3851C135.618 75.2634 134.608 75.2994 133.598 75.3354C132.765 75.3651 131.932 75.3948 131.102 75.3361C126.078 74.981 121.895 71.516 118.091 68.2151C123.603 66.5245 128.072 62.2781 131.022 57.3254C133.973 52.3727 135.554 46.7307 136.756 41.0922C137.388 38.125 137.858 34.7824 136.162 32.2664C135.404 31.1403 134.291 30.317 133.183 29.4965C131.934 28.5727 130.691 27.6524 129.963 26.3077C128.563 23.721 125.835 22.1871 123.247 20.7898C116.474 17.1331 108.694 13.3696 101.395 15.8117C98.5516 16.7629 96.0955 18.5857 93.7008 20.3897C89.7243 23.3854 85.4643 26.8994 84.7072 31.8202C78.2006 28.9092 69.7828 31.2341 65.6924 37.0717C64.7568 38.4069 64.0385 39.8794 63.321 41.3504C62.4762 43.0822 61.6325 44.8118 60.4363 46.3131C55.6319 44.1241 50.7367 42.1343 45.7676 40.3507C43.5645 39.5599 40.9327 38.8611 39.034 40.2301C37.5117 41.3277 37.0447 43.4823 37.4916 45.3052C37.9384 47.128 39.1314 48.6733 40.4107 50.0466C43.1862 53.0258 46.52 55.4831 50.1873 57.2524C50.3052 57.3093 50.424 57.3659 50.5432 57.4226L50.5435 57.4228L50.5443 57.4232C51.6925 57.9702 52.8729 58.5325 53.6375 59.5366C54.4817 60.6452 54.5341 62.5002 53.3506 63.2358C51.6025 64.3223 51.2807 66.7602 51.639 68.7869C51.7614 69.4794 51.9412 70.1654 52.1207 70.8504C52.4665 72.1702 52.8114 73.4866 52.7438 74.8399ZM100.201 85.6778C95.7963 90.3028 89.5983 93.0085 83.2606 93.7995C76.9229 94.5905 70.4514 93.5622 64.3973 91.5276C66.0258 91.5265 67.2033 89.3945 66.3371 88.0155C63.0004 91.905 57.9138 93.7266 53.0667 95.3901C48.6878 96.8929 43.4537 95.8014 40.2371 92.4716C37.0206 89.1419 36.1502 83.6783 38.4122 79.6389C39.3954 77.8831 41.0631 76.3547 43.0681 76.1824C45.0731 76.0101 47.232 77.6726 47.0461 79.6763C45.9304 79.4824 44.7562 80.4301 44.7103 81.5616C49.0265 81.0966 53.0843 78.6233 55.4754 75.0001C56.3008 73.7495 56.928 72.3873 57.5557 71.0239C57.9772 70.1085 58.3989 69.1926 58.881 68.3096C60.081 66.1115 61.8042 64.016 64.192 63.2607C66.1084 62.6545 68.18 62.9909 70.1609 63.3324L78.9605 64.8496C79.6191 64.2811 78.5525 63.3699 77.7008 63.192C74.9506 62.6174 72.162 62.2633 69.3732 61.9091H69.3731C66.787 61.5807 64.2008 61.2522 61.6447 60.7479C56.3321 59.6998 50.9925 57.7826 47.1256 53.9918C49.7486 52.4829 51.7442 49.9189 52.563 47.0058C52.7286 46.4164 52.334 45.4483 51.8554 45.83C51.3086 47.7211 50.7159 49.6935 49.3459 51.1071C47.9758 52.5207 45.5711 53.1417 44.0205 51.9289C42.0075 50.3545 39.8911 48.6371 39.0951 46.2087C38.299 43.7804 39.5583 40.5191 42.0964 40.2213C43.2357 40.0877 44.3494 40.5584 45.4 41.019L55.9989 45.665C59.1533 47.0477 62.3548 48.4443 65.7624 48.9461C68.1549 49.2983 70.5881 49.1995 73.0044 49.0998L79.8544 48.8173C80.1345 48.8057 80.4217 48.7926 80.6796 48.6826C81.3678 48.389 81.6012 47.5485 81.753 46.8158C83.5913 37.9457 86.0609 28.5849 92.7424 22.468C95.7321 19.7309 99.4564 17.8038 103.418 16.9441C107.322 16.0966 111.63 16.3458 114.992 18.5053C109.353 18.9204 103.877 21.2984 99.7241 25.1358C97.9792 23.2732 94.7317 24.7957 93.34 26.9352C91.1826 30.2516 91.2218 34.8587 93.4353 38.138C95.2985 40.8983 95.9894 44.1919 96.682 47.4931C97.3184 50.5271 97.9563 53.5675 99.5066 56.2064C101.959 60.3811 106.527 63.0608 111.297 63.8916C116.067 64.7223 121.012 63.8547 125.546 62.1545C120.472 67.2155 112.366 68.9661 105.655 66.45C105.166 66.2666 104.68 66.0617 104.193 65.8567L104.192 65.8566C102.651 65.2073 101.103 64.5559 99.4496 64.5752C100.419 65.6012 101.656 66.3714 103.004 66.7876C101.45 69.3991 99.8184 71.9651 98.1135 74.4812C97.8954 74.8031 97.647 75.146 97.2738 75.2549C96.8579 75.3762 96.4237 75.169 96.0446 74.9594C92.9101 73.2269 90.1006 70.9087 87.8044 68.1602L83.2109 73.7478C85.5682 76.6292 88.3241 79.184 91.3756 81.3166C87.3142 86.334 81.1609 89.602 74.7297 90.1574C81.3869 90.4964 88.1264 87.3739 92.1719 82.076C94.7331 83.514 97.4239 84.7211 100.201 85.6778ZM121.254 36.5457C122.725 34.9417 123.27 32.6505 123.145 30.4777C123.019 28.3049 122.288 26.2153 121.479 24.1947C123.587 23.9449 125.727 24.7399 127.406 26.0381C129.084 27.3362 130.345 29.1026 131.379 30.9555C132.633 33.2016 133.594 35.6302 134.011 38.1685C134.993 44.1449 132.897 50.2386 129.912 55.5088C129.333 56.5322 128.709 57.5485 127.863 58.3655C127.011 59.1882 125.963 59.7796 124.89 60.2785C120.458 62.3375 115.36 62.9317 110.574 61.9471C113.63 59.4032 115.787 55.8986 117.162 52.1679C118.536 48.4372 119.165 44.4721 119.527 40.5129L119.529 40.4907C119.62 39.4923 119.716 38.443 120.285 37.6186C120.474 37.3457 120.707 37.1091 120.94 36.8724V36.8723V36.872V36.8719C121.046 36.7644 121.152 36.6567 121.254 36.5457ZM115.725 53.0359C114.407 56.1199 112.364 58.9516 109.595 60.8442C109.271 61.0659 108.923 61.2797 108.532 61.3253C108.188 61.3656 107.843 61.2706 107.512 61.1662C105.158 60.4232 102.934 59.1059 101.423 57.1531C100.875 56.4444 100.428 55.6628 100.029 54.8608C97.1215 49.0195 96.8368 41.9326 99.2658 35.877C99.3818 35.5877 99.5478 35.2629 99.8535 35.2023C100.249 35.1238 100.552 35.5283 100.774 35.8647C102.589 38.6142 105.982 40.0061 109.273 40.1503C112.564 40.2944 115.801 39.3591 118.922 38.3042C118.353 39.6951 118.209 41.2102 118.065 42.7111V42.7119V42.7127V42.7133C118.047 42.9016 118.029 43.0896 118.01 43.2772C117.676 46.6144 117.044 49.952 115.725 53.0359ZM115.055 24.386C116.739 24.0032 118.704 23.8979 119.991 25.0498C120.406 25.4218 120.715 25.899 120.969 26.3956C122.563 29.5102 121.939 33.6123 119.491 36.1118C116.66 39.0013 112.181 39.4777 108.151 39.1347C106.705 39.0116 105.218 38.7891 103.983 38.026C102.386 37.0387 101.44 35.2989 100.565 33.6372C104.449 29.2981 109.377 25.6768 115.055 24.386ZM128.675 76.7673C128.147 78.1013 127.613 79.4535 127.44 80.878C127.267 82.3024 127.492 83.8311 128.359 84.9748C121.17 85.3726 113.864 83.1558 108.109 78.8302C109.965 76.2035 111.43 73.3016 112.443 70.2489C112.843 69.0431 114.37 68.5401 115.609 68.8193C116.75 69.0763 117.708 69.8083 118.643 70.5223C118.723 70.5838 118.803 70.6452 118.884 70.7062C121.944 73.0293 125.316 74.9026 128.675 76.7673ZM78.4396 94.9852C77.3059 96.2616 75.9508 97.3212 74.5667 98.3206C71.6776 100.407 68.527 102.303 65.0154 102.909C59.8691 103.797 54.3091 101.577 51.1893 97.3892L62.4142 93.202C62.6829 93.1017 62.9613 92.9999 63.2477 93.0161C63.4095 93.0252 63.5651 93.0716 63.721 93.1181H63.7211L63.7213 93.1182H63.7214H63.7215C63.8251 93.1491 63.929 93.1801 64.0348 93.2002C64.3952 93.2684 64.7587 93.2085 65.1239 93.1484C65.3511 93.1109 65.5789 93.0734 65.8069 93.0666C66.6471 93.0414 67.4193 93.4253 68.1833 93.8052L68.1835 93.8053L68.1836 93.8054L68.1838 93.8055L68.184 93.8056C68.3777 93.9019 68.5709 93.998 68.7645 94.087C71.741 95.4559 75.1729 95.2343 78.4396 94.9852ZM62.2322 46.9587C62.1531 46.7817 62.2365 46.5781 62.32 46.4032C64.6188 41.5888 67.6598 37.1297 71.3025 33.2319C73.8648 36.7897 75.5701 40.9602 76.2346 45.2939C76.3675 46.1602 76.2239 47.3582 75.3542 47.4666C71.1857 47.9862 66.9441 47.9156 62.7953 47.2576C62.576 47.2228 62.3228 47.1614 62.2322 46.9587ZM77.9323 46.6616C77.0739 41.943 75.2921 37.3942 72.7172 33.348C74.8966 32.2005 77.4731 32.1818 79.9361 32.1895C81.4916 32.1944 83.1897 32.2492 84.3751 33.2564L81.3001 42.3294C80.7781 43.8697 80.2495 45.4532 80.3153 47.0782L78.3716 47.1094C78.3023 47.1105 78.2308 47.1112 78.1669 47.0845C78.0114 47.0195 77.9625 46.8274 77.9323 46.6616ZM102.942 69.8805C103.458 69.0021 103.95 68.0639 104.002 67.0464C106.328 68.0923 108.889 68.6106 111.438 68.5512C111.838 68.5418 111.824 69.1588 111.66 69.5239C111.164 70.6287 110.667 71.7346 110.092 72.8009C109.503 73.8953 108.833 74.9445 108.165 75.9925L106.562 78.5045C106.343 78.8484 106.116 79.2 105.79 79.4451C104.916 80.1027 103.667 79.7864 102.669 79.338C101.013 78.594 99.4883 77.5579 98.1873 76.2918C99.9941 74.3318 101.591 72.1785 102.942 69.8805ZM42.8044 72.0512C43.5749 72.8281 44.0785 73.8237 44.5694 74.8016L42.2578 75.1313C41.4876 75.2411 40.6979 75.3573 40.0172 75.734C39.3549 76.1004 38.8441 76.6878 38.3946 77.2968C36.5146 79.8437 35.4726 82.9989 35.466 86.1645C35.4636 87.3079 34.1123 88.1236 33.0062 87.8337C31.9002 87.5438 31.1488 86.4452 30.9576 85.3179C30.7664 84.1906 31.0357 83.0379 31.3734 81.9455C32.5618 78.1013 34.6876 74.4707 37.8328 71.9611C38.4338 71.4817 39.0978 71.0328 39.8569 70.9114C40.9374 70.7388 42.0339 71.2743 42.8044 72.0512ZM139.875 78.4862C140.142 78.8297 140.34 79.2481 140.328 79.6832C140.313 80.2456 139.956 80.7387 139.573 81.15C137.341 83.5413 133.912 84.3554 130.664 84.7392C130.45 84.7645 130.225 84.7873 130.024 84.7087C129.859 84.6441 129.727 84.5171 129.609 84.3846C128.826 83.5033 128.515 82.2714 128.579 81.0939C128.642 79.9163 129.049 78.7822 129.555 77.7169C129.661 77.4925 129.785 77.2571 130.002 77.1367C130.175 77.0407 130.382 77.0332 130.58 77.028L134.511 76.9249C135.479 76.8995 136.458 76.875 137.405 77.0746C138.352 77.2742 139.28 77.7222 139.875 78.4862ZM96.065 41.3438C94.4632 38.376 93.2649 35.1908 92.5133 31.9031L93.1603 30.1747C93.961 28.6248 94.9702 27.1829 96.1522 25.8999C96.6336 25.3774 97.468 25.3197 98.1324 25.5714C98.7967 25.8232 99.3312 26.3238 99.8469 26.8124L102.168 29.0112C102.237 29.0765 102.309 29.1471 102.332 29.2394C102.375 29.413 102.232 29.572 102.102 29.6953C101.015 30.7286 100.05 31.8936 99.2752 33.1779C98.1049 35.119 97.3903 37.2944 96.6853 39.4486L96.065 41.3438ZM101.997 24.6751C106.722 22.1443 111.891 19.7628 117.221 20.3323C120.007 20.63 122.673 21.7386 124.994 23.309C118.345 21.5998 110.933 23.1764 105.555 27.4439C104.724 28.1035 103.477 28.8199 102.737 28.0594C102.547 27.8642 102.422 27.5906 102.301 27.3241C102.107 26.8972 101.922 26.4883 101.487 26.4483C101.073 26.4102 100.888 25.8479 101.064 25.4707C101.24 25.0935 101.63 24.8716 101.997 24.6751ZM89.0154 70.965C89.9481 71.8611 90.9751 72.6524 91.9998 73.4416L96.1399 76.6301C94.865 77.7536 93.6176 78.9083 92.3992 80.0929C89.4988 78.3738 86.9098 76.1309 84.7951 73.5049C85.9527 72.2991 87.0639 71.0488 88.1255 69.7577C88.2923 70.2341 88.6514 70.6153 89.0154 70.965ZM62.3969 62.3406C60.217 64.0436 57.9634 65.8362 56.7644 68.3291C56.5301 68.8162 56.3366 69.3288 56.1433 69.8406C55.7325 70.9285 55.3231 72.0128 54.5267 72.8409C54.1737 72.7372 54.0348 72.3211 53.9488 71.9634L53.1193 68.5131C53.0074 68.0477 52.8947 67.5692 52.9583 67.0947C53.0216 66.6223 53.2545 66.1921 53.4832 65.774L55.917 61.3263C55.9713 61.2272 56.0275 61.1255 56.1145 61.0533C56.3298 60.8745 56.6484 60.9314 56.9202 60.9981L62.3969 62.3406ZM97.8095 77.6194C99.296 79.1478 101.144 80.3227 103.158 81.0208C103.535 80.6663 104.263 80.8618 104.412 81.3573C103.719 82.2568 102.957 83.1039 102.137 83.8892C101.771 84.2399 101.184 84.1659 100.69 84.0524C98.2752 83.4982 95.9496 82.5591 93.8275 81.2814C93.6855 81.1959 93.5258 81.0744 93.5398 80.9093C93.5492 80.7982 93.6367 80.7119 93.7187 80.6363L96.6983 77.8922C97.0107 77.6045 97.5134 77.3149 97.8095 77.6194ZM135.851 39.2848C135.823 39.6211 135.776 39.9963 135.513 40.2078C135.511 37.5665 134.856 34.9281 133.622 32.5925C133.398 32.1688 133.156 31.7548 132.886 31.3589C132.852 31.308 132.816 31.2571 132.781 31.2061V31.206V31.2059C132.509 30.8131 132.23 30.4111 132.164 29.942L135.357 33.2772C135.65 33.5841 135.953 33.9042 136.091 34.3057C136.225 34.6928 136.193 35.1151 136.16 35.5234L135.851 39.2848ZM132.182 35.0464L131.459 34.1351C130.664 33.1325 129.688 32.0377 128.408 32.0363C127.665 32.0355 126.982 32.4158 126.338 32.7853L125.337 33.3594C125.063 33.5162 124.782 33.6793 124.589 33.9288C124.033 34.6481 124.439 35.699 124.965 36.4409C125.328 36.9543 125.764 37.4472 126.343 37.6943C127.091 38.0139 127.952 37.8725 128.736 37.6561C129.811 37.3599 130.849 36.9325 131.82 36.3864C132.131 36.2118 132.474 35.956 132.458 35.6C132.449 35.3904 132.313 35.2108 132.182 35.0464ZM125.866 35.7499C125.741 35.5518 125.613 35.3402 125.611 35.1063C125.607 34.6489 126.063 34.342 126.465 34.1229L127.892 33.3446C128.107 33.2269 128.332 33.1065 128.577 33.09C128.822 33.0735 129.095 33.1916 129.178 33.4231C129.421 34.1064 130.021 34.6515 130.724 34.8288C130.952 34.8862 131.025 35.2014 130.917 35.4101C130.81 35.6188 130.589 35.7408 130.379 35.8452C129.627 36.2184 128.84 36.5227 128.033 36.7531C127.709 36.8455 127.367 36.9263 127.039 36.8484C126.504 36.7211 126.159 36.216 125.866 35.7499ZM115.714 42.7947C114.299 42.9595 114.03 45.5113 114.687 46.8723C114.822 47.1523 115.034 47.4406 115.342 47.4798C115.87 47.5467 116.161 46.896 116.278 46.3773L116.281 46.3652C116.434 45.6817 117.121 42.6309 115.714 42.7947ZM108.415 46.1423C108.698 45.4822 108.793 44.7424 108.684 44.0323C108.634 43.7024 108.535 43.3675 108.314 43.1169C108.094 42.8664 107.73 42.7207 107.416 42.8337C107.131 42.9359 106.953 43.2139 106.818 43.4843C106.343 44.4389 106.154 45.5335 106.281 46.5922C106.34 47.0846 106.96 47.3538 107.431 47.198C107.902 47.0423 108.22 46.5982 108.415 46.1423ZM112.587 44.6316C112.807 44.4495 113.084 44.7802 113.173 45.0512C113.466 45.942 113.709 46.8494 113.9 47.7676C114.02 48.3478 114.12 48.9506 113.991 49.5292C113.81 50.3449 113.19 51.0084 112.471 51.4334C111.751 51.8583 110.933 52.0783 110.125 52.2936C109.912 52.3505 109.644 52.391 109.506 52.2186C109.389 52.0722 109.447 51.8429 109.58 51.711C109.711 51.5817 109.892 51.522 110.067 51.4646L110.078 51.4612C111.336 51.0478 112.681 50.3016 112.974 49.0097C113.135 48.2994 112.939 47.5858 112.742 46.8692C112.563 46.2165 112.383 45.5614 112.472 44.9039C112.485 44.8038 112.51 44.696 112.587 44.6316ZM103.799 41.7257C103.467 41.2667 103.733 40.5691 104.213 40.2697C104.694 39.9703 105.301 39.9744 105.863 40.0469C106.533 40.1334 107.192 40.3039 107.821 40.5532C107.954 40.6062 108.098 40.6738 108.157 40.805C108.266 41.0482 107.984 41.3144 107.718 41.3142C107.503 41.314 107.309 41.2108 107.117 41.1087C107.07 41.084 107.024 41.0593 106.977 41.0362C105.928 40.5158 104.537 40.8174 103.799 41.7257ZM115.887 41.5676C116.385 41.4847 116.914 41.5998 117.333 41.8824C117.508 42.0005 117.758 41.8018 117.759 41.5906C117.76 41.3794 117.603 41.2018 117.437 41.0712C117.079 40.7899 116.634 40.6216 116.18 40.5959C115.887 40.5794 115.562 40.636 115.374 40.8609C115.185 41.0857 115.242 41.5077 115.525 41.586C115.626 41.6139 115.732 41.595 115.836 41.5765L115.852 41.5735L115.887 41.5676ZM109.701 54.5179C109.841 54.4388 110.026 54.577 110.047 54.7368C110.068 54.8965 109.977 55.0493 109.873 55.1722C109.35 55.7889 108.45 55.9789 107.654 55.8343C106.859 55.6897 106.146 55.2621 105.475 54.8111C105.16 54.599 104.849 54.3799 104.543 54.1541C104.226 53.9199 103.888 53.6335 103.851 53.2413C103.813 52.8491 104.315 52.4538 104.602 52.7239C105.307 53.3879 106.028 54.0628 106.905 54.4736C107.782 54.8845 108.857 54.9939 109.701 54.5179ZM94.6032 57.6623C91.6656 51.2769 90.44 44.1133 91.0878 37.1144C91.0989 36.9948 91.114 36.8667 91.193 36.7763C91.3045 36.6487 91.5332 36.654 91.6386 36.7867C91.601 40.6367 91.565 44.5099 92.1936 48.3085C92.8221 52.1071 94.1566 55.8652 96.5931 58.8464C96.6657 58.9351 96.7394 59.0235 96.8132 59.112L96.8139 59.1128C97.233 59.6154 97.6556 60.1223 97.8933 60.7284C96.3089 60.6978 95.2655 59.102 94.6032 57.6623ZM97.4845 28.8277C97.4302 28.7689 97.3669 28.7171 97.2935 28.6854C97.0817 28.5939 96.8333 28.6877 96.6478 28.825C95.9083 29.3723 95.9054 30.6522 96.6424 31.2029C97.0019 30.8966 97.3709 30.5784 97.5816 30.1557C97.7922 29.733 97.805 29.1745 97.4845 28.8277ZM103.86 35.571C104.657 36.2179 105.565 36.7274 106.533 37.0704C109.655 38.1774 113.163 37.4824 116.175 36.1054C116.636 35.8951 117.223 36.006 117.575 36.3697C115.641 37.7481 113.271 38.5058 110.896 38.5052C110.372 38.5051 109.849 38.4692 109.327 38.4236C108.259 38.3304 107.183 38.1936 106.179 37.8196C105.175 37.4457 104.237 36.8131 103.668 35.9046L103.86 35.571ZM137.856 77.6454C137.825 77.7517 137.91 77.8535 137.989 77.9314L139.175 79.1085C139.304 78.77 139.159 78.3759 138.91 78.1124C138.662 77.8489 138.326 77.6886 137.998 77.5341C137.934 77.5368 137.874 77.5838 137.856 77.6454Z" fill="#00160A"/>
<path fill-rule="evenodd" clip-rule="evenodd" d="M266.519 36.6037C270.069 37.834 273.413 34.6325 276.473 32.4513C281.206 29.0763 287.382 27.8001 293.065 29.0223C294.008 29.2251 294.996 29.5294 295.617 30.2673C296.185 30.942 296.346 31.8625 296.438 32.7396C296.997 38.1088 295.655 43.657 292.702 48.1763C291.266 50.3749 289.466 52.3324 288.182 54.623C286.897 56.9137 286.164 59.7122 287.079 62.1738C292.519 76.8089 290.255 94.0708 281.224 106.808C272.193 119.544 256.652 127.392 241.041 127.101C233.057 126.951 225.236 124.82 217.714 122.141C214.432 120.971 210.824 119.689 207.566 120.923C201.621 123.176 195.363 124.599 189.029 125.137C187.457 125.271 185.814 125.339 184.364 124.719C182.193 123.79 180.882 121.436 180.633 119.087C180.384 116.739 181.033 114.388 181.853 112.174C184.327 105.494 192.006 95.0589 196.654 92.6551C196.278 84.5433 196.319 76.3364 198.073 68.4076C199.827 60.4787 203.406 52.785 209.277 47.1749C211.702 44.8576 214.477 42.9289 217.384 41.2553C232.086 32.7905 250.49 31.0482 266.519 36.6037ZM244.13 35.945C232.887 36.2082 221.943 40.7243 213.155 47.7406C210.574 49.8006 208.149 52.0892 206.212 54.7634C204.685 56.8714 203.478 59.1974 202.469 61.5968C196.483 75.8341 197.85 92.9398 206.02 106.046C206.198 106.332 206.403 106.635 206.721 106.746C207.113 106.883 207.535 106.683 207.902 106.488C233.563 92.8125 256.404 73.8724 274.594 51.1861C275.027 50.6458 275.483 50.0183 275.389 49.3322C275.319 48.8174 274.952 48.3994 274.593 48.0235C266.832 39.8856 255.372 35.6819 244.13 35.945ZM259.848 120.937C272.036 115.214 281.294 103.907 285.253 91.0371C286.149 88.1229 286.794 85.1103 286.857 82.0619C286.91 79.4984 286.552 76.9461 286.196 74.4069C285.678 70.7257 285.161 67.0445 284.644 63.3633C284.507 62.3873 283.566 61.099 282.879 61.8059C263.809 81.4318 242.984 99.3529 220.736 115.286C219.995 115.816 219.181 116.472 219.141 117.382C219.094 118.435 220.099 119.198 221.012 119.725C232.677 126.451 247.659 126.659 259.848 120.937ZM184.665 119.438C185.552 120.86 187.474 121.152 189.15 121.198C197.939 121.441 206.635 118.866 214.499 114.932C222.363 110.999 229.48 105.737 236.397 100.308C245.622 93.0677 254.572 85.4792 263.294 77.6398C274.097 67.9309 284.711 57.6328 291.803 44.9579C293.175 42.5061 294.441 39.8177 294.227 37.0165C294.012 34.2152 291.778 31.3871 288.97 31.4966C283.013 31.7289 277.155 34.0196 272.621 37.89C271.719 38.6597 272.356 40.2983 273.466 40.7149C274.576 41.1316 275.813 40.7176 276.898 40.2388C277.983 39.76 279.112 39.2001 280.291 39.3311C282.091 39.5313 283.369 41.3743 283.477 43.1824C283.584 44.9906 282.784 46.7284 281.842 48.2754C280.099 51.1384 277.822 53.634 275.521 56.0718C255.067 77.7408 231.473 96.4405 205.705 111.404C203.384 112.751 201.037 114.074 198.539 115.055C197.229 115.57 195.727 115.984 194.449 115.395C192.353 114.429 192.185 111.486 192.814 109.265C193.758 105.931 195.798 102.917 198.543 100.802C198.023 99.337 197.503 97.8724 196.983 96.4078C190.208 100.735 185.453 108.097 184.294 116.052C184.127 117.2 184.052 118.454 184.665 119.438ZM203.93 109.387C203.978 109.236 203.89 109.078 203.806 108.944C202.931 107.553 202.055 106.163 201.18 104.772C200.784 104.143 200.018 103.43 199.424 103.877C197.285 105.489 195.753 107.889 195.193 110.508C195.082 111.025 195.018 111.602 195.299 112.049C195.823 112.881 197.074 112.696 198 112.364C199.973 111.657 201.874 110.748 203.663 109.655C203.773 109.588 203.891 109.51 203.93 109.387ZM280.071 43.1866C279.983 42.8254 279.553 42.6684 279.182 42.6522C278.054 42.603 276.876 43.5302 276.947 44.6567C277.018 45.7833 278.693 46.4926 279.393 45.6068C279.604 45.3394 279.693 44.9985 279.777 44.6682C279.861 44.3411 279.944 44.0139 280.028 43.6868C280.069 43.5229 280.111 43.3509 280.071 43.1866Z" fill="#00160A"/>
</svg>
